<?xml version="1.0" encoding="UTF-8"?>
<svg width="164px" height="164px" viewBox="0 0 164 164" version="1.1" xmlns="http://www.w3.org/2000/svg" xmlns:xlink="http://www.w3.org/1999/xlink">
    <title>Illustrations / Phone / Call</title>
    <defs>
        <polygon id="path-1" points="8.07321406 1.56319402e-13 8.95522387e-05 8.08097774 8.95522387e-05 109.919022 8.07321406 118 55.9492591 118 64.0000896 109.919022 64.0000896 8.08097774 55.9492591 1.56319402e-13"></polygon>
    </defs>
    <g id="Illustrations-/-Phone-/-Call" stroke="none" stroke-width="1" fill="none" fill-rule="evenodd">
        <g id="Group" transform="translate(49.682305, 23.000000)">
            <mask id="mask-2" fill="white">
                <use xlink:href="#path-1"></use>
            </mask>
            <use id="Fill-1" fill="#CBF7EE" xlink:href="#path-1"></use>
            <rect id="Rectangle" fill="#002D39" mask="url(#mask-2)" x="-1" y="100" width="66" height="19"></rect>
            <path d="M37.4006866,108.872507 C37.4006866,111.781164 35.0427761,114.138179 32.1350149,114.138179 C29.2263582,114.138179 26.8693433,111.781164 26.8693433,108.872507 C26.8693433,105.963851 29.2263582,103.606836 32.1350149,103.606836 C35.0427761,103.606836 37.4006866,105.963851 37.4006866,108.872507" id="Fill-4" fill="#CBF7EE" mask="url(#mask-2)"></path>
            <polygon id="Fill-6" fill="#002D39" mask="url(#mask-2)" points="25.4391045 9.28119403 38.8307463 9.28119403 38.8307463 4.39880597 25.4391045 4.39880597"></polygon>
            <polygon id="Path" fill="#23E5DB" mask="url(#mask-2)" points="8.95522386e-05 8.08097774 8.07321406 -9.09494702e-13 55.8272199 -0.000251906388 -0.0007800663 55.8277481"></polygon>
        </g>
        <path d="M73.704,65 L65.226,68.392 L65,68.725 L65.01046,69.1350875 C65.5358186,85.2758483 78.5718016,98.3121674 94.7120999,98.8375396 L95.121,98.847 L95.456,98.62 L98.847,90.143 L98.696,89.746 L88.411,84.603 L88.016,84.735 L86.2404391,88.2863493 L84.861092,88.1399616 C80.142218,87.6391557 76.3690815,83.9489754 75.7415259,79.2693091 L75.7076648,78.9873593 L75.561248,77.6080146 L79.112,75.832 L79.244,75.436 L74.101,65.151 L73.704,65 Z" id="Fill-1" fill="#00A49F"></path>
        <g id="Group-2" transform="translate(138.182305, 68.000000) rotate(-345.000000) translate(-138.182305, -68.000000) translate(123.682305, 48.000000)" fill="#FFCE32">
            <polygon id="Fill-21" points="-6.03961325e-14 11.2696933 11.2998773 -1.75859327e-13 16.649816 5.36466258 5.35067485 16.635092"></polygon>
            <polygon id="Fill-23" points="11.2413497 32.1894479 26.9046626 29.1092025 28.3652761 36.5396319 12.7004908 39.6198773"></polygon>
        </g>
        <g id="Group-2" transform="translate(25.182305, 68.000000) scale(-1, 1) rotate(-345.000000) translate(-25.182305, -68.000000) translate(10.682305, 48.000000)" fill="#FFCE32">
            <polygon id="Fill-21" points="-6.03961325e-14 11.2696933 11.2998773 -1.75859327e-13 16.649816 5.36466258 5.35067485 16.635092"></polygon>
            <polygon id="Fill-23" points="11.2413497 32.1894479 26.9046626 29.1092025 28.3652761 36.5396319 12.7004908 39.6198773"></polygon>
        </g>
    </g>
</svg>