<svg xmlns="http://www.w3.org/2000/svg" xmlns:xlink="http://www.w3.org/1999/xlink" width="319" height="319" viewBox="0 0 319 319">
    <defs>
        <path id="prefix__a" d="M134.567 68.158c0 37.641-30.124 68.156-67.283 68.156C30.124 136.314 0 105.8 0 68.157 0 30.514 30.123 0 67.284 0c37.159 0 67.283 30.514 67.283 68.157"/>
    </defs>
    <g fill="none" fill-rule="evenodd">
        <path fill="#F8FBCF" d="M116.531 232.84c63.604 0 115.19-51.63 115.403-115.4v-.801C231.721 52.866 180.135 1.237 116.531 1.237 52.795 1.237 1.128 53.083 1.128 117.038c0 63.956 51.668 115.802 115.403 115.802z" transform="translate(42.793 42.793)"/>
        <path fill="#002F34" fill-rule="nonzero" d="M116.531 150.042c35.23 0 65.653 20.653 79.901 50.553-20.735 19.972-48.89 32.246-79.901 32.246l-1.908-.016c-30.258-.492-57.685-12.67-77.995-32.23 14.251-29.9 44.674-50.553 79.903-50.553z" transform="translate(42.793 42.793)"/>
        <g transform="translate(42.793 42.793) translate(49.248 36.586)">
            <mask id="prefix__b" fill="#fff">
                <use xlink:href="#prefix__a"/>
            </mask>
            <use fill="#FFCE32" xlink:href="#prefix__a"/>
            <path fill="#FFF" d="M15.87 88.537h102.41c1.414 0 2.608 1.054 2.783 2.457 2.965 23.72-1.856 38.826-14.466 45.32-19.558 10.074-52.802 13.301-78.627 0-16.722-8.612-21.647-23.882-14.777-45.81.367-1.17 1.45-1.967 2.677-1.967z" mask="url(#prefix__b)"/>
            <path fill="#FFF" d="M124.791 74.418L128.681 74.418 130.366 101.001 124.791 100.028z" mask="url(#prefix__b)" transform="rotate(60 127.578 87.71)"/>
            <path fill="#FFF" d="M4.989 74.905L8.879 74.905 12.248 102.46 4.989 100.515z" mask="url(#prefix__b)" transform="scale(-1 1) rotate(60 0 73.754)"/>
        </g>
        <path fill="#002F34" fill-rule="nonzero" d="M116.531 36.585l1.113.01c29.927.491 55.104 20.776 63.331 48.495-6.764 4.01-14.484 6.122-22.347 6.112-19.552 0-36.15-12.817-42.051-30.608-9.77 24.316-36.038 38.157-61.818 31.397-1.38-.362-2.744-.779-4.089-1.251 6.376-30.927 33.44-54.155 65.86-54.155h.001z" transform="translate(42.793 42.793)"/>
        <g fill="#002F34" fill-rule="nonzero">
            <path d="M15.124 7.589c0 4.19-3.387 7.587-7.563 7.587S0 11.78 0 7.589C0 3.397 3.385 0 7.56 0c4.177 0 7.564 3.397 7.564 7.589M53.589 7.589c0 4.19-3.387 7.587-7.563 7.587s-7.56-3.396-7.56-7.587C38.465 3.397 41.85 0 46.025 0s7.563 3.397 7.563 7.589" transform="translate(42.793 42.793) translate(89.3 103.727)"/>
        </g>
        <path fill="#002F34" fill-rule="nonzero" d="M143.37 28.167c0 14.875-12.016 26.932-26.839 26.932-14.822 0-26.839-12.057-26.839-26.932 0-14.874 12.017-26.931 26.839-26.931 14.823 0 26.839 12.057 26.839 26.931" transform="translate(42.793 42.793)"/>
    </g>
</svg>
