<?xml version="1.0" encoding="UTF-8"?>
<svg width="164px" height="164px" viewBox="0 0 164 164" version="1.1" xmlns="http://www.w3.org/2000/svg" xmlns:xlink="http://www.w3.org/1999/xlink">
    <title>Illustrations / Message / Happy</title>
    <g id="Illustrations-/-Message-/-Happy" stroke="none" stroke-width="1" fill="none" fill-rule="evenodd">
        <g id="Group-14" transform="translate(22.000000, 22.000000)">
            <g id="Group-12">
                <path d="M36.6086519,119.731763 L29.8519111,115.9448 L29.8519111,70.5548741 C29.8519111,48.6979852 47.6335407,30.9163556 69.4907259,30.9163556 L79.1739852,30.9163556 C101.030874,30.9163556 118.814874,48.6979852 118.814874,70.5548741 C118.814874,92.4120593 101.030874,110.196059 79.1739852,110.196059 L52.6042074,110.196059 C52.1642074,110.196059 51.7348741,110.352207 51.3944296,110.633985 L50.8765037,111.004652 L36.6086519,119.731763 Z" id="Fill-1" fill="#FFCE32"></path>
                <path d="M68.2379852,80.2005037 L67.719763,79.829837 C67.3796148,79.5480593 66.9502815,79.3919111 66.5102815,79.3919111 L39.9408,79.3919111 C18.0836148,79.3919111 0.299614815,61.6079111 0.299614815,39.7507259 C0.299614815,17.893837 18.0836148,0.112207407 39.9408,0.112207407 L49.623763,0.112207407 C71.4809481,0.112207407 89.2625778,17.893837 89.2625778,39.7507259 L89.2625778,85.1406519 L82.505837,88.9276148 L68.2379852,80.2005037 Z" id="Fill-3" fill="#F8FBCF"></path>
                <path d="M28.4348148,59.6025185 C34.8934815,52.9616296 41.7681481,49.6653333 48.8851852,49.82 C59.324,50.0404444 66.2564444,57.6668148 66.5465185,57.9912593 L63.0158519,61.1548148 C62.9574815,61.0905185 57.0982222,54.7118519 48.7376296,54.5586667 C42.998963,54.4653333 37.3228148,57.262963 31.8336296,62.9074074 L28.4348148,59.6025185 Z" id="Fill-5" fill="#002F34" transform="translate(47.490667, 56.361104) rotate(-180.000000) translate(-47.490667, -56.361104) "></path>
                <path d="M33.826963,19.5931556 C27.2814815,19.5931556 21.9751111,24.8992296 21.9751111,31.4450074 C21.9751111,37.9904889 27.2814815,43.2968593 33.826963,43.2968593 C40.3724444,43.2968593 45.6788148,37.9904889 45.6788148,31.4450074 C45.6788148,24.8992296 40.3724444,19.5931556 33.826963,19.5931556 M33.826963,27.8894519 C35.7875556,27.8894519 37.3825185,29.4844148 37.3825185,31.4450074 C37.3825185,33.4053037 35.7875556,35.000563 33.826963,35.000563 C31.8663704,35.000563 30.2714074,33.4053037 30.2714074,31.4450074 C30.2714074,29.4844148 31.8663704,27.8894519 33.826963,27.8894519" id="Fill-7" fill="#002F34"></path>
                <polygon id="Fill-9" fill="#002F34" points="51.6533333 33.8154074 65.7783704 33.8154074 65.7783704 29.0746667 51.6533333 29.0746667"></polygon>
            </g>
        </g>
    </g>
</svg>